<svg width="125" height="28" viewBox="0 0 125 28" fill="none" xmlns="http://www.w3.org/2000/svg">
<path d="M10.724 22.372C8.68933 22.372 6.85067 21.9333 5.208 21.056C3.584 20.1787 2.30533 18.9747 1.372 17.444C0.457333 15.8947 0 14.1587 0 12.236C0 10.3133 0.457333 8.58667 1.372 7.056C2.30533 5.50667 3.584 4.29333 5.208 3.416C6.85067 2.53867 8.68933 2.1 10.724 2.1C12.7587 2.1 14.588 2.53867 16.212 3.416C17.836 4.29333 19.1147 5.50667 20.048 7.056C20.9813 8.58667 21.448 10.3133 21.448 12.236C21.448 14.1587 20.9813 15.8947 20.048 17.444C19.1147 18.9747 17.836 20.1787 16.212 21.056C14.588 21.9333 12.7587 22.372 10.724 22.372ZM10.724 18.508C11.8813 18.508 12.9267 18.2467 13.86 17.724C14.7933 17.1827 15.5213 16.436 16.044 15.484C16.5853 14.532 16.856 13.4493 16.856 12.236C16.856 11.0227 16.5853 9.94 16.044 8.988C15.5213 8.036 14.7933 7.29867 13.86 6.776C12.9267 6.23467 11.8813 5.964 10.724 5.964C9.56667 5.964 8.52133 6.23467 7.588 6.776C6.65467 7.29867 5.91733 8.036 5.376 8.988C4.85333 9.94 4.592 11.0227 4.592 12.236C4.592 13.4493 4.85333 14.532 5.376 15.484C5.91733 16.436 6.65467 17.1827 7.588 17.724C8.52133 18.2467 9.56667 18.508 10.724 18.508Z" fill="#3B3B3B"/>
<path d="M33.453 6.748C34.853 6.748 36.1223 7.07467 37.261 7.728C38.4183 8.36267 39.3237 9.268 39.977 10.444C40.6303 11.6013 40.957 12.9547 40.957 14.504C40.957 16.0533 40.6303 17.416 39.977 18.592C39.3237 19.7493 38.4183 20.6547 37.261 21.308C36.1223 21.9427 34.853 22.26 33.453 22.26C31.5303 22.26 30.0183 21.6533 28.917 20.44V27.468H24.549V6.972H28.721V8.708C29.8037 7.40134 31.381 6.748 33.453 6.748ZM32.697 18.676C33.817 18.676 34.7317 18.3027 35.441 17.556C36.169 16.7907 36.533 15.7733 36.533 14.504C36.533 13.2347 36.169 12.2267 35.441 11.48C34.7317 10.7147 33.817 10.332 32.697 10.332C31.577 10.332 30.653 10.7147 29.925 11.48C29.2157 12.2267 28.861 13.2347 28.861 14.504C28.861 15.7733 29.2157 16.7907 29.925 17.556C30.653 18.3027 31.577 18.676 32.697 18.676Z" fill="#3B3B3B"/>
<path d="M53.597 21.308C53.1677 21.6253 52.6357 21.868 52.001 22.036C51.385 22.1853 50.7317 22.26 50.041 22.26C48.249 22.26 46.8584 21.8027 45.869 20.888C44.8984 19.9733 44.413 18.6293 44.413 16.856V10.668H42.089V7.308H44.413V3.64H48.781V7.308H52.533V10.668H48.781V16.8C48.781 17.4347 48.9397 17.9293 49.257 18.284C49.593 18.62 50.0597 18.788 50.657 18.788C51.3477 18.788 51.9357 18.6013 52.421 18.228L53.597 21.308Z" fill="#3B3B3B"/>
<path d="M56.049 6.972H60.417V22.036H56.049V6.972ZM58.233 4.872C57.4303 4.872 56.777 4.63867 56.273 4.172C55.769 3.70533 55.517 3.12667 55.517 2.436C55.517 1.74533 55.769 1.16667 56.273 0.700001C56.777 0.233334 57.4303 0 58.233 0C59.0357 0 59.689 0.224 60.193 0.672001C60.697 1.12 60.949 1.68 60.949 2.352C60.949 3.08 60.697 3.68667 60.193 4.172C59.689 4.63867 59.0357 4.872 58.233 4.872Z" fill="#3B3B3B"/>
<path d="M67.2319 2.43604H76.1359C78.2639 2.43604 80.1399 2.8467 81.7639 3.66804C83.4066 4.4707 84.6759 5.60937 85.5719 7.08403C86.4866 8.5587 86.9439 10.276 86.9439 12.236C86.9439 14.196 86.4866 15.9134 85.5719 17.388C84.6759 18.8627 83.4066 20.0107 81.7639 20.832C80.1399 21.6347 78.2639 22.036 76.1359 22.036H67.2319V2.43604ZM75.9119 18.312C77.8719 18.312 79.4306 17.7707 80.5879 16.688C81.7639 15.5867 82.3519 14.1027 82.3519 12.236C82.3519 10.3694 81.7639 8.8947 80.5879 7.81204C79.4306 6.7107 77.8719 6.16004 75.9119 6.16004H71.7679V18.312H75.9119Z" fill="#059DD7"/>
<path d="M105.233 6.97204V22.036H101.089V20.244C100.51 20.8974 99.8194 21.4014 99.0167 21.756C98.2141 22.092 97.3461 22.26 96.4127 22.26C94.4341 22.26 92.8661 21.6907 91.7087 20.552C90.5514 19.4134 89.9727 17.724 89.9727 15.484V6.97204H94.3407V14.84C94.3407 17.2667 95.3581 18.48 97.3927 18.48C98.4381 18.48 99.2781 18.144 99.9127 17.472C100.547 16.7814 100.865 15.764 100.865 14.42V6.97204H105.233Z" fill="#059DD7"/>
<path d="M116.447 22.26C114.861 22.26 113.433 21.9334 112.163 21.28C110.913 20.608 109.933 19.684 109.223 18.508C108.514 17.332 108.159 15.9974 108.159 14.504C108.159 13.0107 108.514 11.676 109.223 10.5C109.933 9.32404 110.913 8.40937 112.163 7.75603C113.433 7.08404 114.861 6.74804 116.447 6.74804C118.034 6.74804 119.453 7.08404 120.703 7.75603C121.954 8.40937 122.934 9.32404 123.643 10.5C124.353 11.676 124.707 13.0107 124.707 14.504C124.707 15.9974 124.353 17.332 123.643 18.508C122.934 19.684 121.954 20.608 120.703 21.28C119.453 21.9334 118.034 22.26 116.447 22.26ZM116.447 18.676C117.567 18.676 118.482 18.3027 119.191 17.556C119.919 16.7907 120.283 15.7734 120.283 14.504C120.283 13.2347 119.919 12.2267 119.191 11.48C118.482 10.7147 117.567 10.332 116.447 10.332C115.327 10.332 114.403 10.7147 113.675 11.48C112.947 12.2267 112.583 13.2347 112.583 14.504C112.583 15.7734 112.947 16.7907 113.675 17.556C114.403 18.3027 115.327 18.676 116.447 18.676Z" fill="#059DD7"/>
<path d="M13.908 12.036C13.908 13.6929 12.5648 15.036 10.908 15.036C9.2511 15.036 7.90796 13.6929 7.90796 12.036C7.90796 10.3792 9.2511 9.03601 10.908 9.03601C12.5648 9.03601 13.908 10.3792 13.908 12.036Z" fill="#059DD7"/>
</svg>
