<svg width="40" height="40" viewBox="0 0 40 40" fill="none" xmlns="http://www.w3.org/2000/svg">
<path fill-rule="evenodd" clip-rule="evenodd" d="M20 4C11.1634 4 4 11.1634 4 20C4 28.8366 11.1634 36 20 36C28.8366 36 36 28.8366 36 20C36 11.1634 28.8366 4 20 4ZM0 20C0 8.9543 8.9543 0 20 0C31.0457 0 40 8.9543 40 20C40 31.0457 31.0457 40 20 40C8.9543 40 0 31.0457 0 20ZM20 10.7998C21.1046 10.7998 22 11.6952 22 12.7998V18H27.2C28.3046 18 29.2 18.8954 29.2 20C29.2 21.1046 28.3046 22 27.2 22H22V27.1998C22 28.3044 21.1046 29.1998 20 29.1998C18.8954 29.1998 18 28.3044 18 27.1998V22H12.8C11.6955 22 10.8 21.1046 10.8 20C10.8 18.8954 11.6955 18 12.8 18H18V12.7998C18 11.6952 18.8954 10.7998 20 10.7998Z" fill="url(#paint0_linear_106_230)"/>
<defs>
<linearGradient id="paint0_linear_106_230" x1="20" y1="0" x2="20" y2="40" gradientUnits="userSpaceOnUse">
<stop stop-color="#4ECDFD"/>
<stop offset="1" stop-color="#0888B8"/>
</linearGradient>
</defs>
</svg>
