<svg width="26" height="26" viewBox="0 0 26 26" fill="none" xmlns="http://www.w3.org/2000/svg">
<path d="M18.1077 11.5053L14.5891 11.2502L13.2605 7.97691C13.2351 7.91393 13.1911 7.86016 13.1345 7.82271C13.0778 7.78526 13.0111 7.76589 12.9432 7.76718C12.8771 7.76667 12.8124 7.78631 12.7578 7.82349C12.7031 7.86066 12.6611 7.91362 12.6373 7.97528L11.3081 11.2502L7.78813 11.5055C7.72161 11.5088 7.65769 11.5324 7.60499 11.5731C7.55228 11.6138 7.51331 11.6697 7.49332 11.7332C7.47151 11.7971 7.46977 11.866 7.48836 11.9309C7.50694 11.9957 7.54494 12.0533 7.59725 12.0959L10.298 14.3745L9.45355 17.8057C9.43617 17.8715 9.43932 17.9411 9.4626 18.0051C9.48588 18.0691 9.52816 18.1245 9.58379 18.1638C9.63723 18.2034 9.70148 18.2257 9.76794 18.2278C9.83441 18.2299 9.89993 18.2117 9.95577 18.1756L12.9573 16.3095L15.9578 18.1838C16.015 18.2176 16.0809 18.2338 16.1473 18.2304C16.2137 18.227 16.2776 18.2042 16.3311 18.1648C16.3846 18.1255 16.4254 18.0712 16.4483 18.0088C16.4713 17.9465 16.4754 17.8787 16.4601 17.8141L15.6155 14.3827L18.3165 12.104C18.3676 12.0608 18.4043 12.0032 18.4221 11.9387C18.4398 11.8742 18.4377 11.8059 18.4159 11.7427C18.3946 11.6765 18.3538 11.6184 18.2987 11.5761C18.2437 11.5337 18.1771 11.509 18.1077 11.5053Z" fill="#059DD7"/>
<path d="M25.5137 9.52502L23.9773 7.69267L23.4685 5.35622C23.4102 5.08843 23.2877 4.8388 23.1116 4.62879C22.9356 4.41878 22.7111 4.25466 22.4576 4.15053L20.2457 3.24206L18.7093 1.40967C18.5332 1.19966 18.3088 1.03555 18.0552 0.931429C17.8017 0.827309 17.5267 0.786296 17.2539 0.811916L14.8731 1.03541L12.6612 0.126937C12.4077 0.0228117 12.1327 -0.0182052 11.8598 0.00741111C11.5869 0.0330274 11.3244 0.124511 11.0947 0.274001L9.09047 1.57828L6.70972 1.80179C6.43685 1.8274 6.17429 1.91889 5.94458 2.06837C5.71487 2.21786 5.5249 2.42089 5.39097 2.66L4.22249 4.7463L2.21831 6.05058C1.9886 6.20007 1.79862 6.4031 1.6647 6.64221C1.53077 6.88133 1.45691 7.14939 1.44945 7.42335L1.38436 9.8137L0.215873 11.9C0.081952 12.1391 0.0080878 12.4072 0.000627414 12.6811C-0.00683297 12.9551 0.0523335 13.2268 0.173043 13.4728L1.22626 15.6196L1.16117 18.0099C1.15371 18.2839 1.21287 18.5556 1.33358 18.8016C1.4543 19.0477 1.63294 19.2608 1.85417 19.4225L3.7844 20.834L4.8376 22.9807C4.95832 23.2268 5.13697 23.4398 5.3582 23.6016C5.57943 23.7634 5.83662 23.869 6.10769 23.9095L8.47275 24.2622L10.403 25.6736C10.6242 25.8354 10.8814 25.941 11.1525 25.9815C11.4235 26.0219 11.7004 25.9959 11.9592 25.9057L14.2173 25.119L16.5823 25.4717C16.8534 25.5121 17.1302 25.4861 17.389 25.396C17.6478 25.3058 17.8809 25.1541 18.0681 24.954L19.702 23.208L21.96 22.4212C22.2188 22.3311 22.4519 22.1794 22.6391 21.9793C22.8264 21.7792 22.9623 21.5366 23.0351 21.2724L23.6703 18.9671L25.3041 17.221C25.4914 17.0209 25.6273 16.7783 25.7001 16.5141C25.7729 16.2499 25.7804 15.9719 25.7221 15.7042L25.2133 13.3677L25.8485 11.0624C25.9213 10.7982 25.9289 10.5202 25.8706 10.2524C25.8123 9.98465 25.6898 9.73503 25.5137 9.52502ZM12.9547 20.7487C11.4221 20.7487 9.92399 20.2943 8.64971 19.4428C7.37544 18.5914 6.38226 17.3812 5.79578 15.9653C5.20929 14.5494 5.05584 12.9914 5.35482 11.4883C5.65381 9.98519 6.39181 8.60449 7.47549 7.52081C8.55917 6.43713 9.93986 5.69914 11.443 5.40015C12.9461 5.10116 14.5041 5.25462 15.92 5.8411C17.3359 6.42759 18.5461 7.42076 19.3975 8.69504C20.249 9.96932 20.7034 11.4675 20.7034 13C20.7034 14.0176 20.503 15.0252 20.1136 15.9653C19.7242 16.9054 19.1534 17.7596 18.4339 18.4792C17.7143 19.1987 16.8601 19.7695 15.92 20.1589C14.9799 20.5483 13.9723 20.7487 12.9547 20.7487Z" fill="#8B8B8B"/>
</svg>
